<?xml version="1.0" encoding="utf-8"?>
<!DOCTYPE svg PUBLIC "-//W3C//DTD SVG 1.1//EN" "http://www.w3.org/Graphics/SVG/1.1/DTD/svg11.dtd">
<svg version="1.1" xmlns="http://www.w3.org/2000/svg" xmlns:xlink="http://www.w3.org/1999/xlink" viewBox="-22.26 -3 125 125" xml:space="preserve" width="100%" height="100%">
  <circle cx="50%" cy="50%" r="50%" fill="white" transform="translate(-22.26, -3)"/>
  <g transform="translate(11.13, 9)">
  <path stroke="#2c3e50" stroke-width="5px" fill="#2c3e50" d="M37.267,83.681c-2.346,5.932-4.133,14.183,2.655,15.99c10.427,2.772,11.907-12.896,11.907-12.896
	L37.267,83.681z"/>
  <path stroke="#2c3e50" stroke-width="5px" fill="#2c3e50" d="M60.742,63.386c1.558-8.114,1.467-21.957-8.271-25.394c-2.4-0.848-11.467-3.006-15.126,12.956
	c-2.651,11.612,1.488,25.539,1.488,25.539l14.725,3.132C53.56,79.618,59.698,68.814,60.742,63.386z"/>
  <path stroke="#2c3e50" stroke-width="5px" fill="#2c3e50" d="M21.366,47.319c1.716,6.142,2.633,14.534-4.311,15.623C6.4,64.611,6.565,48.875,6.565,48.875L21.366,47.319z
	"/>
  <path stroke="#2c3e50" stroke-width="5px" fill="#2c3e50" d="M0.146,24.679C-0.555,16.447,0.98,2.69,11.028,0.287C13.5-0.306,22.741-1.501,24.711,14.755
	c1.431,11.827-4.151,25.243-4.151,25.243l-14.97,1.575C5.589,41.573,0.612,30.19,0.146,24.679z"/>
    </g>
</svg>